<?xml version="1.0" encoding="UTF-8" standalone="no"?>
<!-- Created with Inkscape (http://www.inkscape.org/) -->

<svg
   xmlns:dc="http://purl.org/dc/elements/1.1/"
   xmlns:cc="http://creativecommons.org/ns#"
   xmlns:rdf="http://www.w3.org/1999/02/22-rdf-syntax-ns#"
   xmlns:svg="http://www.w3.org/2000/svg"
   xmlns="http://www.w3.org/2000/svg"
   xmlns:sodipodi="http://sodipodi.sourceforge.net/DTD/sodipodi-0.dtd"
   xmlns:inkscape="http://www.inkscape.org/namespaces/inkscape"
   width="744.09448819"
   height="1052.3622047"
   id="svg2"
   version="1.1"
   inkscape:version="0.48.5 r10040"
   sodipodi:docname="model_diagram.svg">
  <defs
     id="defs4">
    <marker
       inkscape:stockid="Arrow1Lend"
       orient="auto"
       refY="0.0"
       refX="0.0"
       id="Arrow1Lend"
       style="overflow:visible;">
      <path
         id="path3784"
         d="M 0.0,0.0 L 5.0,-5.0 L -12.5,0.0 L 5.0,5.0 L 0.0,0.0 z "
         style="fill-rule:evenodd;stroke:#000000;stroke-width:1.0pt;"
         transform="scale(0.8) rotate(180) translate(12.5,0)" />
    </marker>
    <marker
       inkscape:stockid="Arrow1Lstart"
       orient="auto"
       refY="0.0"
       refX="0.0"
       id="Arrow1Lstart"
       style="overflow:visible">
      <path
         id="path3781"
         d="M 0.0,0.0 L 5.0,-5.0 L -12.5,0.0 L 5.0,5.0 L 0.0,0.0 z "
         style="fill-rule:evenodd;stroke:#000000;stroke-width:1.0pt"
         transform="scale(0.8) translate(12.5,0)" />
    </marker>
  </defs>
  <sodipodi:namedview
     id="base"
     pagecolor="#ffffff"
     bordercolor="#666666"
     borderopacity="1.0"
     inkscape:pageopacity="0.0"
     inkscape:pageshadow="2"
     inkscape:zoom="0.56824543"
     inkscape:cx="81.679749"
     inkscape:cy="526.18109"
     inkscape:document-units="px"
     inkscape:current-layer="layer1"
     showgrid="false"
     inkscape:window-width="1364"
     inkscape:window-height="766"
     inkscape:window-x="0"
     inkscape:window-y="0"
     inkscape:window-maximized="0" />
  <metadata
     id="metadata7">
    <rdf:RDF>
      <cc:Work
         rdf:about="">
        <dc:format>image/svg+xml</dc:format>
        <dc:type
           rdf:resource="http://purl.org/dc/dcmitype/StillImage" />
        <dc:title />
      </cc:Work>
    </rdf:RDF>
  </metadata>
  <g
     inkscape:label="Layer 1"
     inkscape:groupmode="layer"
     id="layer1">
    <rect
       style="fill:#cccccc;fill-opacity:0.43956048;stroke:#000000;stroke-width:1.58392489;stroke-miterlimit:4;stroke-dasharray:none"
       id="rect3785"
       width="132.40129"
       height="326.12534"
       x="308.18408"
       y="95.698761"
       ry="47.385727" />
    <rect
       ry="59.833302"
       y="117.9068"
       x="498.39212"
       height="411.79395"
       width="167.18127"
       id="rect3783"
       style="fill:#cccccc;fill-opacity:0.43956048;stroke:#000000;stroke-width:2;stroke-miterlimit:4;stroke-dasharray:none" />
    <rect
       style="fill:#cccccc;stroke:#000000;stroke-width:2;stroke-miterlimit:4;stroke-dasharray:none;fill-opacity:0.43956044"
       id="rect3001"
       width="167.18127"
       height="411.79395"
       x="70.39212"
       y="117.9068"
       ry="59.833302" />
    <path
       sodipodi:type="arc"
       style="fill:#ff2a2a;stroke:#008000"
       id="path2985"
       sodipodi:cx="215.71428"
       sodipodi:cy="405.21933"
       sodipodi:rx="64.285713"
       sodipodi:ry="64.285713"
       d="m 279.99999,405.21933 a 64.285713,64.285713 0 1 1 -128.57142,0 64.285713,64.285713 0 1 1 128.57142,0 z"
       transform="translate(-59.959999,-204.71843)" />
    <path
       d="m 279.99999,405.21933 a 64.285713,64.285713 0 1 1 -128.57142,0 64.285713,64.285713 0 1 1 128.57142,0 z"
       sodipodi:ry="64.285713"
       sodipodi:rx="64.285713"
       sodipodi:cy="405.21933"
       sodipodi:cx="215.71428"
       id="path2987"
       style="fill:#008000;stroke:#008000"
       sodipodi:type="arc"
       transform="translate(-59.959999,43.853003)" />
    <rect
       style="fill:#808000;stroke:#008000;stroke-width:1.08897424"
       id="rect2989"
       width="143.75891"
       height="155.14819"
       x="-1230.9331"
       y="-1415.329"
       ry="0"
       transform="matrix(0.94708274,-0.32098953,-0.9625318,-0.27116883,0,0)" />
    <rect
       transform="matrix(0.94708274,-0.32098953,-0.9625318,-0.27116883,0,0)"
       ry="0"
       y="-1420.1373"
       x="-1071.1028"
       height="155.14819"
       width="143.75891"
       id="rect2991"
       style="fill:#808000;stroke:#008000;stroke-width:1.08897423999999998;fill-opacity:0.79670328" />
    <rect
       style="fill:#808000;stroke:#008000;stroke-width:1.08897423999999998;fill-opacity:0.42857143"
       id="rect2993"
       width="143.75891"
       height="155.14819"
       x="-1074.1595"
       y="-1593.5299"
       ry="0"
       transform="matrix(0.94708274,-0.32098953,-0.9625318,-0.27116883,0,0)" />
    <rect
       transform="matrix(0.94708274,-0.32098953,-0.9625318,-0.27116883,0,0)"
       ry="0"
       y="-1587.5309"
       x="-1241.2258"
       height="155.14819"
       width="143.75891"
       id="rect2995"
       style="fill:#808000;stroke:#008000;stroke-width:1.08897423999999998;fill-opacity:0.51098901" />
    <path
       transform="translate(370.04,-204.71843)"
       d="m 279.99999,405.21933 a 64.285713,64.285713 0 1 1 -128.57142,0 64.285713,64.285713 0 1 1 128.57142,0 z"
       sodipodi:ry="64.285713"
       sodipodi:rx="64.285713"
       sodipodi:cy="405.21933"
       sodipodi:cx="215.71428"
       id="path2997"
       style="fill:#ff2a2a;stroke:#008000"
       sodipodi:type="arc" />
    <path
       transform="translate(370.04,43.853003)"
       sodipodi:type="arc"
       style="fill:#008000;stroke:#008000"
       id="path2999"
       sodipodi:cx="215.71428"
       sodipodi:cy="405.21933"
       sodipodi:rx="64.285713"
       sodipodi:ry="64.285713"
       d="m 279.99999,405.21933 a 64.285713,64.285713 0 1 1 -128.57142,0 64.285713,64.285713 0 1 1 128.57142,0 z" />
    <path
       sodipodi:type="arc"
       style="fill:#ff2a2a;stroke:#008000"
       id="path3001"
       sodipodi:cx="215.71428"
       sodipodi:cy="405.21933"
       sodipodi:rx="64.285713"
       sodipodi:ry="64.285713"
       d="m 279.99999,405.21933 a 64.285713,64.285713 0 1 1 -128.57142,0 64.285713,64.285713 0 1 1 128.57142,0 z"
       transform="matrix(0.75744211,0,0,0.75744211,210.64891,-142.14357)" />
    <path
       d="m 279.99999,405.21933 a 64.285713,64.285713 0 1 1 -128.57142,0 64.285713,64.285713 0 1 1 128.57142,0 z"
       sodipodi:ry="64.285713"
       sodipodi:rx="64.285713"
       sodipodi:cy="405.21933"
       sodipodi:cx="215.71428"
       id="path3003"
       style="fill:#008000;stroke:#008000"
       sodipodi:type="arc"
       transform="matrix(0.75744211,0,0,0.75744211,210.64891,46.134903)" />
    <path
       style="fill:none;stroke:#000000;stroke-width:1px;stroke-linecap:butt;stroke-linejoin:miter;stroke-opacity:1"
       d="m 155.92724,382.77037 0,-115.18395"
       id="path4407"
       inkscape:connector-curvature="0" />
    <path
       inkscape:connector-curvature="0"
       id="path4409"
       d="m 583.92724,382.77037 0,-115.18395"
       style="fill:none;stroke:#000000;stroke-width:1px;stroke-linecap:butt;stroke-linejoin:miter;stroke-opacity:1" />
    <path
       style="fill:none;stroke:#000000;stroke-width:1px;stroke-linecap:butt;stroke-linejoin:miter;stroke-opacity:1"
       d="m 375.92724,302.46937 0,-88.96322"
       id="path4411"
       inkscape:connector-curvature="0"
       sodipodi:nodetypes="cc" />
    <path
       style="fill:none;stroke:#000000;stroke-width:1px;stroke-linecap:butt;stroke-linejoin:miter;stroke-opacity:1"
       d="M 216.79681,186.11485 323.55266,164.57639"
       id="path4413"
       inkscape:connector-curvature="0" />
    <path
       inkscape:connector-curvature="0"
       id="path4415"
       d="M 523.55266,186.11485 416.79681,164.57639"
       style="fill:none;stroke:#000000;stroke-width:1px;stroke-linecap:butt;stroke-linejoin:miter;stroke-opacity:1" />
    <path
       style="fill:none;stroke:#000000;stroke-width:1px;stroke-linecap:butt;stroke-linejoin:miter;stroke-opacity:1"
       d="m 146.06365,726.79863 0,-219.97537"
       id="path3787"
       inkscape:connector-curvature="0" />
    <path
       style="fill:none;stroke:#000000;stroke-width:1px;stroke-linecap:butt;stroke-linejoin:miter;stroke-opacity:1"
       d="m 177.7401,529.7007 0,195.33813"
       id="path3789"
       inkscape:connector-curvature="0" />
    <path
       inkscape:connector-curvature="0"
       id="path3791"
       d="m 586.06365,726.79863 0,-219.97537"
       style="fill:none;stroke:#000000;stroke-width:1px;stroke-linecap:butt;stroke-linejoin:miter;stroke-opacity:1" />
    <path
       inkscape:connector-curvature="0"
       id="path3793"
       d="m 557.7401,529.7007 0,195.33813"
       style="fill:none;stroke:#000000;stroke-width:1px;stroke-linecap:butt;stroke-linejoin:miter;stroke-opacity:1" />
    <path
       style="fill:none;stroke:#000000;stroke-width:1.1356535px;stroke-linecap:butt;stroke-linejoin:miter;stroke-opacity:1"
       d="m 366.06365,684.52742 0,-283.70416"
       id="path3795"
       inkscape:connector-curvature="0" />
    <path
       style="fill:none;stroke:#000000;stroke-width:1.1356535px;stroke-linecap:butt;stroke-linejoin:miter;stroke-opacity:1"
       d="m 397.7401,424.32849 0,251.9293"
       id="path3797"
       inkscape:connector-curvature="0" />
  </g>
</svg>
